<?xml version="1.0" encoding="UTF-8" standalone="no"?>
<!-- Uploaded to: SVG Repo, www.svgrepo.com, Generator: SVG Repo Mixer Tools -->

<svg
   fill="#ffffff"
   height="24"
   width="24"
   version="1.1"
   id="Layer_1"
   viewBox="-143 145 15.36 15.36"
   xml:space="preserve"
   sodipodi:docname="linkedin.svg"
   inkscape:version="1.4 (86a8ad7, 2024-10-11)"
   xmlns:inkscape="http://www.inkscape.org/namespaces/inkscape"
   xmlns:sodipodi="http://sodipodi.sourceforge.net/DTD/sodipodi-0.dtd"
   xmlns="http://www.w3.org/2000/svg"
   xmlns:svg="http://www.w3.org/2000/svg"><defs
   id="defs1" /><sodipodi:namedview
   id="namedview1"
   pagecolor="#ffffff"
   bordercolor="#666666"
   borderopacity="1.0"
   inkscape:showpageshadow="2"
   inkscape:pageopacity="0.0"
   inkscape:pagecheckerboard="0"
   inkscape:deskcolor="#d1d1d1"
   inkscape:zoom="16.5"
   inkscape:cx="17.090909"
   inkscape:cy="21.787879"
   inkscape:window-width="1920"
   inkscape:window-height="1027"
   inkscape:window-x="-8"
   inkscape:window-y="-8"
   inkscape:window-maximized="1"
   inkscape:current-layer="Layer_1" />
<path
   d="m -128.84,145 h -12.96 c -0.663,0 -1.2,0.537 -1.2,1.2 v 12.96 c 0,0.663 0.537,1.2 1.2,1.2 h 12.96 c 0.663,0 1.2,-0.537 1.2,-1.2 V 146.2 c 0,-0.663 -0.537,-1.2 -1.2,-1.2 z m -8.628,10.893 h -1.497 v -4.791 h 1.497 z m -0.789,-5.39101 h -0.012 c -0.543,0 -0.894,-0.36599 -0.894,-0.83099 0,-0.474 0.363,-0.831 0.915,-0.831 0.552,0 0.891,0.357 0.903,0.831 0.003,0.46199 -0.348,0.83099 -0.912,0.83099 z m 6.777,5.39101 h -1.698 v -2.478 c 0,-0.648 -0.264,-1.09201 -0.849,-1.09201 -0.447,0 -0.696,0.30001 -0.81,0.58801 -0.042,0.10204 -0.0361,0.246 -0.0361,0.393 v 2.589 h -1.68299 c 0,0 0.021,-4.392 0,-4.791 h 1.68299 v 0.753 c 0.099,-0.33 0.636,-0.798 1.494,-0.798 1.065,0 1.899,0.69 1.899,2.172 z"
   id="path1"
   style="stroke-width:0.03" />
</svg>
