<?xml version="1.0" encoding="UTF-8" standalone="no"?>
<!-- Uploaded to: SVG Repo, www.svgrepo.com, Generator: SVG Repo Mixer Tools -->

<svg
   fill="#ffffff"
   height="24"
   width="24"
   version="1.1"
   id="Layer_1"
   viewBox="-143 145 15.36 15.36"
   xml:space="preserve"
   sodipodi:docname="github.svg"
   inkscape:version="1.4 (86a8ad7, 2024-10-11)"
   xmlns:inkscape="http://www.inkscape.org/namespaces/inkscape"
   xmlns:sodipodi="http://sodipodi.sourceforge.net/DTD/sodipodi-0.dtd"
   xmlns="http://www.w3.org/2000/svg"
   xmlns:svg="http://www.w3.org/2000/svg"><defs
   id="defs2" /><sodipodi:namedview
   id="namedview2"
   pagecolor="#ffffff"
   bordercolor="#666666"
   borderopacity="1.0"
   inkscape:showpageshadow="2"
   inkscape:pageopacity="0.0"
   inkscape:pagecheckerboard="0"
   inkscape:deskcolor="#d1d1d1"
   inkscape:zoom="15.641202"
   inkscape:cx="15.855559"
   inkscape:cy="21.385824"
   inkscape:window-width="1920"
   inkscape:window-height="1027"
   inkscape:window-x="-8"
   inkscape:window-y="-8"
   inkscape:window-maximized="1"
   inkscape:current-layer="Layer_1" />
<g
   id="g2"
   transform="matrix(0.03,0,0,0.03,-138.71,140.65)">
	<path
   d="m 177.1,398.4 c -8.6,-1.5 -17.6,-1.3 -26.4,-0.8 -20,1.1 -40,3 -60,1.2 -9.5,-0.9 -19.1,-1.8 -28.7,-1.6 -17.4,0.3 -32,6 -40.6,22.6 -4.3,8.2 -5.3,17 -5,26.1 0.7,25.6 11.8,40.2 36.2,47.5 19.6,5.8 39.7,6.6 59.9,6.2 7.5,0 15,0.4 22.5,-0.1 15.5,-0.9 30.7,-3.2 45.4,-8.6 15.2,-5.6 24.3,-16.3 27.6,-31.8 1.3,-6 1.9,-12.3 1.8,-18.4 -0.2,-20.7 -14.2,-39.2 -32.7,-42.3 z m -98.4,67.7 c -6.5,7.1 -15.9,7.2 -22.6,0.3 -4.9,-5 -7.7,-12.7 -7.7,-22.3 0.2,-6.5 2.1,-13.6 7.7,-19.3 6.7,-6.9 16.1,-6.8 22.6,0.2 9.8,10.6 9.8,30.5 0,41.1 z m 90.9,0.5 c -6.1,6.3 -14.9,6.5 -21.4,0.7 -11.2,-10.2 -11.2,-32.9 0,-43.2 6.4,-5.9 15.2,-5.7 21.4,0.6 5.7,5.8 7.6,13.1 7.9,20.9 -0.3,7.9 -2.3,15.1 -7.9,21 z"
   id="path1" />
	<path
   d="m 329,145 h -432 c -22.1,0 -40,17.9 -40,40 v 432 c 0,22.1 17.9,40 40,40 h 432 c 22.1,0 40,-17.9 40,-40 V 185 c 0,-22.1 -17.9,-40 -40,-40 z m -84.8,278.4 c -1.4,11.4 -3.8,23.1 -7.9,33.8 -12,30.7 -36,47.6 -67.8,52.7 -18.2,2.9 -36.9,3 -57.1,4.5 -18.1,-1.6 -38,-1.8 -57.3,-5.2 -37.4,-6.6 -62.8,-32.8 -70.2,-70.3 -3.8,-19.1 -4.9,-38.3 1,-57.3 3.1,-9.8 8.2,-18.5 14.8,-26.4 0.9,-1 1.7,-2.5 1.6,-3.8 -1.1,-17.2 0.9,-34.2 6,-50.6 4.2,-13.7 1.1,-12.9 16.3,-8.9 18.3,4.8 34.3,14.7 50,25 1.8,1.2 4.6,1.7 6.8,1.3 22.2,-3.4 44.3,-3.6 66.5,0.3 1.6,0.3 3.7,-0.3 5.2,-1.2 13.5,-8.8 27.4,-16.7 42.6,-22.2 5.5,-2 11.3,-3.3 16.9,-5 2.5,-0.7 3.6,0.2 4.5,2.6 6.8,19 9.6,38.5 8.6,58.6 -0.1,1.1 0.5,2.6 1.2,3.5 17.1,19.8 21.4,43.4 18.3,68.6 z"
   id="path2" />
</g>
</svg>
